<?xml version="1.0" encoding="UTF-8"?>
<svg width="500px" height="500px" viewBox="0 0 500 500" version="1.1" xmlns="http://www.w3.org/2000/svg" xmlns:xlink="http://www.w3.org/1999/xlink">
    <title>Heavy-L</title>
    <g id="Logo-+-Ideas" stroke="none" stroke-width="1" fill="none" fill-rule="evenodd">
        <g id="Group-3" transform="translate(-25.000000, -25.000000)" fill="#000000" fill-rule="nonzero">
            <g id="Heavy-L" transform="translate(25.000000, 25.000000)">
                <path d="M249.90991,466.84886 C267.031851,466.84886 283.061024,461.323608 297.997429,450.273104 C312.933834,439.222849 326.048668,423.861618 337.341932,404.189413 C348.635196,384.517257 357.468861,361.566434 363.842928,335.336943 C370.219481,309.107352 373.407758,280.813471 373.407758,250.455298 C373.407758,219.975514 370.219481,191.560144 363.842928,165.209191 C357.468861,138.858237 348.635196,115.816292 337.341932,96.0833555 C326.048668,76.3506676 312.933834,60.9590716 297.997429,49.9085674 C283.061024,38.8583119 267.031851,33.3331841 249.90991,33.3331841 C232.78772,33.3331841 216.788888,38.8583119 201.913414,49.9085674 C187.037691,60.9590716 173.922856,76.3506676 162.56891,96.0833555 C151.214965,115.816292 142.350337,138.858237 135.975027,165.209191 C129.599717,191.560144 126.412062,219.975514 126.412062,250.455298 C126.412062,280.813471 129.599717,309.107352 135.975027,335.336943 C142.350337,361.566434 151.214965,384.517257 162.56891,404.189413 C173.922856,423.861618 187.068031,439.222849 202.004436,450.273104 C216.940592,461.323608 232.909084,466.84886 249.90991,466.84886 Z M249.90991,68.8520224 C260.960199,68.8520224 271.55525,73.8004269 281.695064,83.697236 C291.834629,93.5940451 300.942108,107.073178 309.017501,124.134635 C317.092894,141.195844 323.498544,160.594783 328.234453,182.331454 C332.970611,204.067876 335.33869,226.775824 335.33869,250.455298 C335.33869,273.891797 332.970611,296.417576 328.234453,318.032635 C323.498544,339.647744 317.092894,358.955611 309.017501,375.956238 C300.942108,392.956839 291.834629,406.435898 281.695064,416.393413 C271.55525,426.350904 260.960199,431.329649 249.90991,431.329649 C238.980985,431.329649 228.416275,426.350904 218.215779,416.393413 C208.015283,406.435898 198.877463,392.956839 190.802319,375.956238 C182.726927,358.955611 176.351617,339.647744 171.676389,318.032635 C167.001162,296.417576 164.663549,273.891797 164.663549,250.455298 C164.663549,226.775824 167.001162,204.067876 171.676389,182.331454 C176.351617,160.594783 182.726927,141.195844 190.802319,124.134635 C198.877463,107.073178 208.015283,93.5940451 218.215779,83.697236 C228.416275,73.8004269 238.980985,68.8520224 249.90991,68.8520224 Z M231.148444,36.4294342 L231.148444,462.477179 L268.671376,462.477179 L268.671376,36.4294342 L231.148444,36.4294342 Z M249.90991,318.579142 C224.651646,318.579142 200.607762,320.582752 177.778259,324.589971 C154.949004,328.597438 134.669749,334.213713 116.940493,341.438794 C99.2109886,348.664124 85.1246251,357.255546 74.6814024,367.213062 L103.096856,390.892474 C112.690038,383.6065 124.954831,377.383062 139.891235,372.22216 C154.82764,367.061246 171.676514,363.084318 190.437856,360.291376 C209.199198,357.498409 229.023216,356.101926 249.90991,356.101926 C270.917968,356.101926 290.802667,357.498409 309.564009,360.291376 C328.326346,363.084318 345.174598,367.061246 360.108765,372.22216 C375.045418,377.383062 387.311082,383.6065 396.905755,390.892474 L425.320463,367.213062 C414.877738,357.255546 400.760536,348.664124 382.968858,341.438794 C365.179666,334.213713 344.900784,328.597438 322.132211,324.589971 C299.363638,320.582752 275.289538,318.579142 249.90991,318.579142 Z M461.930932,231.147381 L38.0694413,231.147381 L38.0694413,268.670202 L461.930932,268.670202 L461.930932,231.147381 Z M249.90991,182.331454 C275.289538,182.331454 299.363638,180.32772 322.132211,176.320252 C344.900784,172.313033 365.179666,166.696759 382.968858,159.471429 C400.760536,152.246348 414.877738,143.655062 425.320463,133.697572 L396.905755,110.017973 C387.311082,117.182621 375.045418,123.375743 360.108765,128.597339 C345.174598,133.818935 328.326346,137.826154 309.564009,140.618996 C290.802667,143.412088 270.917968,144.808633 249.90991,144.808633 C229.023216,144.808633 209.229539,143.412088 190.528878,140.618996 C171.828218,137.826154 155.009685,133.818935 140.073281,128.597339 C125.137124,123.375743 112.81165,117.182621 103.096856,110.017973 L74.6814024,133.697572 C85.1246251,143.655062 99.2109886,152.246348 116.940493,159.471429 C134.669749,166.696759 154.949004,172.313033 177.778259,176.320252 C200.607762,180.32772 224.651646,182.331454 249.90991,182.331454 Z M249.90991,500 C277.475323,500 303.704867,495.749806 328.598543,487.249418 C353.492469,478.749279 376.352313,466.84886 397.178077,451.548162 C418.00384,436.247713 436.097684,418.154235 451.459606,397.267727 C466.821529,376.381245 478.752697,353.491066 487.253111,328.59719 C495.751037,303.703588 500,277.534803 500,250.090836 C500,222.647117 495.751037,196.447992 487.253111,171.493459 C478.752697,146.538927 466.821529,123.64881 451.459606,102.823109 C436.097684,81.9974071 418.00384,63.8735258 397.178077,48.4514646 C376.352313,33.0294034 353.462128,21.098644 328.507521,12.6591864 C303.552914,4.21972881 277.293029,0 249.727865,0 C222.405179,0 196.266533,4.21972881 171.311926,12.6591864 C146.357568,21.098644 123.467383,33.0294034 102.64137,48.4514646 C81.8156067,63.8735258 63.7221365,81.9974071 48.3609597,102.823109 C32.9995342,123.64881 21.0990801,146.538927 12.6595972,171.493459 C4.21986575,196.447992 0,222.647117 0,250.090836 C0,277.534803 4.21986575,303.703588 12.6595972,328.59719 C21.0990801,353.491066 32.9995342,376.381245 48.3609597,397.267727 C63.7221365,418.154235 81.8460719,436.247713 102.732766,451.548162 C123.619211,466.84886 146.509397,478.749279 171.403322,487.249418 C196.296998,495.749806 222.465861,500 249.90991,500 Z M249.90991,448.998046 C228.051811,448.998046 207.225923,445.628356 187.432246,438.888976 C167.638817,432.149347 149.4542,422.647179 132.878395,410.382473 C116.302838,398.117741 101.8826,383.697572 89.6176828,367.121965 C77.3530141,350.546482 67.8508553,332.361931 61.1112064,312.568313 C54.3718063,292.774695 51.0021062,271.948869 51.0021062,250.090836 C51.0021062,228.233051 54.3718063,207.407349 61.1112064,187.613731 C67.8508553,167.820113 77.3530141,149.605085 89.6176828,132.968647 C101.8826,116.332458 116.272497,101.881923 132.787372,89.6170424 C149.302247,77.3524102 167.486865,67.8807449 187.341223,61.2020464 C207.195582,54.5230991 227.99113,51.1836255 249.727865,51.1836255 C271.585715,51.1836255 292.44182,54.5230991 312.296178,61.2020464 C332.151781,67.8807449 350.397204,77.3524102 367.032448,89.6170424 C383.667692,101.881923 398.088302,116.332458 410.294279,132.968647 C422.497769,149.605085 431.969338,167.820113 438.708987,187.613731 C445.448636,207.407349 448.81846,228.233051 448.81846,250.090836 C448.81846,271.948869 445.478479,292.774695 438.798517,312.568313 C432.121042,332.361931 422.649473,350.546482 410.383809,367.121965 C398.118146,383.697572 383.697536,398.117741 367.121978,410.382473 C350.546421,422.647179 332.331836,432.149347 312.478224,438.888976 C292.623865,445.628356 271.76776,448.998046 249.90991,448.998046 Z" id="Shape"></path>
            </g>
        </g>
    </g>
</svg>