<?xml version="1.0" encoding="UTF-8"?>
<svg width="80px" height="107px" viewBox="0 0 80 107" version="1.1" xmlns="http://www.w3.org/2000/svg" xmlns:xlink="http://www.w3.org/1999/xlink">
    <title>Bold-L</title>
    <g id="Page-1" stroke="none" stroke-width="1" fill="none" fill-rule="evenodd">
        <g id="arrow.triangle.merge" transform="translate(-2300.000000, -1463.000000)" fill="#000000" fill-rule="nonzero">
            <g id="Symbols" transform="translate(526.000000, 623.000000)">
                <g id="Bold-L" transform="translate(1814.030000, 893.500000) scale(1, -1) translate(-1814.030000, -893.500000) translate(1774.530000, 840.000000)">
                    <path d="M6.7783,106.5498 C8.6989,106.5498 10.5625,105.963867 12.3691,104.792 L15.665,102.59473 C17.7809333,101.19499 20.0474,99.4331067 22.4644,97.30908 C24.8813333,95.18506 27.2250667,92.92269 29.4956,90.52197 C31.7661333,88.1212567 33.7721667,85.7897133 35.5137,83.52734 C37.2552333,81.26498 38.5247667,79.2955667 39.3223,77.6191 L39.5664,77.6191 C40.3476667,79.2955667 41.605,81.2609133 43.3384,83.51514 C45.0718,85.7693667 47.0778,88.09684 49.3564,90.49756 C51.6350667,92.8982733 53.9829,95.1606433 56.3999,97.28467 C58.8169,99.40869 61.0996,101.17871 63.248,102.59473 L66.5195,104.792 C68.3424333,105.9476 70.2142,106.5254 72.1348,106.5254 C74.2506667,106.5254 75.8945333,105.8947 77.0664,104.6333 C78.2382667,103.371907 78.8242,101.789063 78.8242,99.88477 C78.8242,98.7454433 78.5271667,97.63867 77.9331,96.56445 C77.3390333,95.49023 76.5049,94.6113247 75.4307,93.927734 L70.4502,90.72949 C68.1227333,89.2320967 65.5755333,87.24235 62.8086,84.76025 C60.0416667,82.27815 57.4008667,79.4949333 54.8862,76.4106 C52.3716,73.3263333 50.3127,70.1281 48.7095,66.8159 C47.1063,63.5037667 46.3047,60.2689 46.3047,57.1113 L46.3047,26.0566 L32.6084,26.0566 L32.6084,57.1113 C32.6084,60.2689 31.7986667,63.5037667 30.1792,66.8159 C28.5597333,70.1281 26.4926667,73.3222667 23.978,76.3984 C21.4634,79.4746 18.8226333,82.2578167 16.0557,84.74805 C13.2887667,87.2382833 10.7578333,89.2320967 8.4629,90.72949 L3.4092,93.952148 C2.35126667,94.6357427 1.52933333,95.51465 0.9434,96.58887 C0.357466667,97.66309 0.0645,98.7779967 0.0645,99.93359 C0.0645,101.723957 0.6382,103.27426 1.7856,104.5845 C2.93306667,105.8947 4.5973,106.5498 6.7783,106.5498 Z M22.3301,34.1133 L56.5586,34.1133 C58.2024667,34.1133 59.4516667,33.7226667 60.3062,32.9414 C61.1606667,32.1601333 61.5675667,31.1347333 61.5269,29.8652 C61.4861667,28.5956667 60.9531,27.2610333 59.9277,25.8613 L43.9121,3.5469 C42.6588333,1.82163333 41.1736333,0.967133333 39.4565,0.983172094 C37.7394333,0.999666667 36.2624,1.85416667 35.0254,3.5469 L18.9609,25.8369 C17.9355667,27.2529 17.3944,28.5916 17.3374,29.853 C17.2804667,31.1144 17.6792333,32.1398 18.5337,32.9292 C19.3881667,33.7186 20.6536333,34.1133 22.3301,34.1133 Z" id="Shape"></path>
                </g>
            </g>
        </g>
    </g>
</svg>