<?xml version="1.0" standalone="no"?>
<!DOCTYPE svg PUBLIC "-//W3C//DTD SVG 20010904//EN"
 "http://www.w3.org/TR/2001/REC-SVG-20010904/DTD/svg10.dtd">
<svg version="1.0" xmlns="http://www.w3.org/2000/svg"
 width="700.000000pt" height="700.000000pt" viewBox="0 0 700.000000 700.000000"
 preserveAspectRatio="xMidYMid meet">
<metadata>
Created by potrace 1.14, written by Peter Selinger 2001-2017
</metadata>
<g transform="translate(0.000000,700.000000) scale(0.100000,-0.100000)"
fill="#000000" stroke="none">
<path d="M3278 6995 c-2 -1 -39 -5 -83 -9 -79 -6 -108 -9 -195 -21 -74 -10
-101 -15 -200 -36 -52 -11 -106 -22 -120 -25 -165 -34 -497 -155 -705 -257
-240 -118 -529 -304 -700 -452 -233 -201 -409 -386 -571 -600 -174 -230 -321
-486 -433 -751 -78 -186 -156 -429 -187 -579 -39 -195 -52 -269 -60 -350 -2
-22 -7 -76 -11 -120 -10 -102 -10 -508 0 -600 13 -119 15 -138 22 -195 5 -46
36 -214 50 -270 102 -432 264 -804 507 -1168 58 -87 198 -276 217 -292 3 -3
35 -39 71 -80 444 -513 1086 -907 1757 -1081 121 -31 278 -63 368 -74 28 -4
61 -8 74 -11 166 -25 681 -25 842 1 13 2 44 6 69 9 487 63 1051 284 1478 579
61 42 166 119 172 126 3 4 21 18 41 33 43 32 100 81 193 168 419 391 726 854
926 1399 28 77 94 293 104 344 3 12 7 33 11 47 3 14 12 63 21 110 9 47 18 92
19 102 10 48 22 147 32 253 10 101 9 527 -1 620 -4 39 -9 93 -12 120 -11 104
-56 326 -95 469 -232 857 -792 1603 -1565 2084 -365 227 -835 402 -1258 468
-21 3 -48 7 -59 10 -12 2 -49 6 -83 10 -33 3 -74 7 -90 10 -33 5 -541 14 -546
9z m-669 -887 c-56 -58 -174 -206 -237 -300 -43 -64 -182 -303 -182 -313 0 -1
-20 -45 -43 -96 -24 -52 -54 -121 -67 -154 -13 -33 -26 -63 -29 -67 -6 -7
-162 46 -271 92 -98 42 -280 144 -280 157 0 14 187 183 335 302 122 97 368
241 550 322 61 27 247 98 258 99 5 0 -10 -19 -34 -42z m1841 7 c111 -38 298
-126 424 -198 67 -38 123 -73 126 -77 3 -4 16 -13 30 -20 77 -40 288 -212 417
-339 l56 -55 -29 -23 c-32 -26 -239 -130 -323 -163 -117 -46 -195 -70 -202
-63 -4 5 -22 44 -39 88 -122 311 -317 629 -508 829 -32 33 -48 56 -37 52 11
-5 49 -18 85 -31z m-1214 -646 l0 -491 -123 7 c-68 3 -133 8 -146 10 -12 2
-49 6 -82 10 -126 12 -286 35 -296 41 -18 11 130 327 222 474 99 159 245 323
353 399 33 22 62 41 66 41 3 0 6 -221 6 -491z m589 457 c56 -38 150 -126 214
-201 112 -131 262 -389 345 -595 l34 -85 -76 -12 c-114 -18 -149 -22 -230 -29
-40 -3 -83 -7 -95 -10 -12 -2 -74 -7 -139 -10 l-116 -6 0 491 c0 270 3 491 7
491 3 0 29 -15 56 -34z m-2505 -999 c104 -63 189 -106 305 -153 33 -14 69 -29
80 -34 11 -5 56 -21 100 -36 44 -15 83 -29 87 -33 4 -3 -4 -55 -17 -116 -13
-60 -26 -128 -30 -150 -22 -137 -35 -231 -40 -287 -4 -34 -8 -74 -11 -88 -2
-14 -7 -77 -10 -140 -4 -63 -9 -117 -11 -120 -3 -3 -239 -5 -525 -6 l-520 0 6
60 c3 34 8 72 10 86 3 14 7 42 10 63 44 293 191 681 367 965 49 81 51 83 72
68 12 -9 69 -44 127 -79z m4558 11 c180 -300 327 -689 367 -972 3 -20 7 -53
10 -73 3 -21 8 -58 11 -83 l5 -46 -520 1 c-286 0 -522 2 -525 5 -3 3 -8 53
-11 110 -4 58 -8 116 -10 130 -2 14 -7 52 -10 85 -3 33 -8 74 -10 90 -10 83
-16 122 -21 145 -2 14 -6 41 -9 60 -2 19 -14 78 -25 130 -37 171 -44 151 57
184 211 68 442 180 597 287 23 16 42 29 43 29 1 0 24 -37 51 -82z m-3353 -412
c93 -16 238 -36 295 -41 36 -3 76 -8 90 -10 14 -2 75 -7 135 -11 113 -7 176
-11 185 -13 4 -1 6 -155 5 -343 l0 -343 -460 0 -460 0 1 30 c4 81 16 229 19
235 2 3 6 32 10 65 6 60 7 72 20 155 10 59 13 78 19 98 3 9 8 37 11 61 4 23
10 54 15 67 5 13 7 24 4 24 -2 0 0 9 7 21 8 17 17 20 42 15 18 -3 46 -8 62
-10z m2073 -93 c28 -135 50 -265 57 -329 3 -27 7 -65 10 -84 11 -85 20 -215
16 -246 -1 -7 -143 -10 -458 -10 l-458 1 -2 343 c-1 254 2 342 10 343 41 4 86
7 192 13 66 4 127 9 135 11 8 2 44 7 80 10 83 8 332 44 337 49 1 1 15 3 30 4
29 2 29 2 51 -105z m-2822 -1228 c1 -35 14 -194 19 -245 2 -19 6 -62 10 -95 8
-86 44 -305 66 -410 11 -49 22 -101 25 -115 5 -24 1 -27 -53 -44 -187 -59
-432 -172 -582 -270 l-85 -55 -59 97 c-63 101 -207 390 -207 414 0 8 -4 18 -9
24 -8 8 -86 240 -97 287 -2 9 -6 25 -9 35 -23 91 -51 247 -61 349 l-7 62 524
-2 524 -2 1 -30z m1459 -319 c0 -303 -2 -349 -15 -351 -8 -1 -72 -6 -143 -9
-70 -4 -135 -9 -145 -10 -9 -2 -48 -7 -87 -10 -38 -4 -101 -12 -140 -17 -38
-6 -88 -12 -110 -15 -22 -3 -68 -12 -102 -19 l-63 -13 -11 42 c-6 22 -13 50
-15 61 -11 56 -16 78 -33 175 -11 58 -22 137 -26 175 -4 39 -9 73 -11 76 -3 5
-5 36 -19 216 l-3 52 461 -2 462 -2 0 -349z m1449 314 c-4 -107 -20 -263 -40
-382 -11 -74 -21 -128 -29 -168 -2 -13 -7 -40 -10 -60 -3 -19 -11 -57 -19 -85
-12 -48 -14 -50 -47 -50 -19 1 -54 4 -79 9 -25 4 -56 9 -70 11 -14 2 -38 6
-55 9 -31 5 -170 21 -260 30 -46 5 -257 19 -297 20 -15 0 -17 29 -16 352 l0
352 462 -1 461 -2 -1 -35z m1582 -18 c-4 -32 -9 -68 -11 -82 -2 -14 -7 -45
-10 -70 -12 -89 -78 -337 -122 -460 -38 -107 -176 -403 -215 -464 -7 -11 -29
-46 -48 -77 l-36 -58 -79 51 c-158 101 -384 207 -577 269 -38 12 -68 27 -68
33 0 6 7 38 14 71 8 33 17 76 20 95 3 19 10 58 15 85 10 50 13 69 31 200 20
140 25 189 36 359 3 50 7 93 10 97 2 4 239 7 525 7 l521 0 -6 -56z m-3030
-1657 c0 -267 -3 -485 -7 -485 -3 0 -24 12 -45 26 -163 109 -326 312 -463 574
-64 124 -131 274 -131 295 0 9 21 15 63 20 34 4 69 9 77 10 8 1 46 6 83 10 37
3 77 8 88 10 11 2 64 7 117 11 53 3 98 7 99 8 1 0 28 2 60 4 l59 2 0 -485z
m744 470 c25 -2 77 -7 115 -10 93 -8 145 -14 175 -20 14 -3 51 -8 83 -12 31
-3 57 -10 57 -14 0 -4 -21 -57 -46 -116 -86 -201 -196 -390 -319 -543 -69 -86
-246 -240 -276 -240 -4 0 -7 218 -7 485 l0 486 87 -6 c47 -3 106 -7 131 -10z
m-1892 -265 c123 -309 319 -628 511 -828 22 -24 41 -45 41 -47 0 -3 -26 5 -57
16 -292 105 -543 244 -788 435 -110 85 -285 246 -285 262 0 14 142 95 250 142
110 49 284 109 292 102 3 -4 20 -41 36 -82z m3007 38 c120 -44 279 -119 355
-168 l49 -31 -43 -42 c-232 -226 -457 -386 -731 -523 -151 -74 -365 -162 -365
-149 0 3 25 32 56 64 113 120 240 299 336 476 63 115 188 392 188 416 0 13 15
9 155 -43z"/>
</g>
</svg>
